<?xml version="1.0" encoding="utf-8"?>
<!-- Generator: Adobe Illustrator 16.0.3, SVG Export Plug-In . SVG Version: 6.00 Build 0)  -->
<!DOCTYPE svg PUBLIC "-//W3C//DTD SVG 1.1//EN" "http://www.w3.org/Graphics/SVG/1.1/DTD/svg11.dtd">
<svg version="1.1" id="Ebene_1" xmlns="http://www.w3.org/2000/svg" xmlns:xlink="http://www.w3.org/1999/xlink" x="0px" y="0px"
	 width="48px" height="45px" viewBox="0 0 48 45" enable-background="new 0 0 48 45" xml:space="preserve">
<g>
	<g>
		<polygon fill="#353DA2" points="0,0 0,45 37,45 35,54 48,45 48,0 		"/>
		<polygon opacity="0.25" fill="#1D1E1C" points="36.63,46.666 47,45 37,45 		"/>
		<polygon fill="#FFFFFF" points="25.524,31.016 23.828,35.645 16.477,35.645 16.477,10.338 19.235,9.368 18.716,6.025 6.494,6.025 
			6.023,9.368 9.979,10.923 9.979,34.14 6.023,35.645 6.494,38.988 28.14,38.988 28.61,36.397 		"/>
		<path fill="#FFFFFF" d="M37.908,34.186l-4.71-8.336l-3.106-1.599c4.566,0,9.793-3.627,9.793-8.76
			c0-5.839-3.813-9.465-10.877-9.465h-7.249l0.515,3.343h5.039c4.19,0,6.262,2.685,6.262,6.122c0,2.731-2.259,5.793-5.885,5.793
			h-3.014v2.967l3.882,6.765l3.087,5.382l-0.471,2.591h1.62L41.384,39L42,35.656L37.908,34.186z"/>
	</g>
</g>
</svg>
